<svg width="516" height="522" viewBox="0 0 516 522" fill="none" xmlns="http://www.w3.org/2000/svg">
<rect width="516" height="522" fill="#E5E5E5"/>
<g filter="url(#filter0_b_0_1)">
<rect width="512" height="512" fill="#65E99A"/>
</g>
<rect width="512" height="512" fill="#1AFFD5"/>
<g filter="url(#filter1_d_0_1)">
<path d="M173.333 377.333L169.149 360.333C164.833 352.833 160.518 335.465 162.333 339.833C161.557 336.067 161.008 332.917 160.633 330.26L160.067 327.074C159.806 326.277 159.648 325.355 159.58 324.333C159.351 320.889 160.143 316.312 161.44 311.546C162.982 305.88 165.236 299.947 167.333 295.333C168.15 290.215 167.372 301.833 169.149 282.333L169.954 272.107C167.802 261.233 173.157 239.373 177.333 227.333L179.833 224.783C177.095 224.783 179.833 219.333 188.333 213.333C191.301 211.238 197.396 200.982 198.833 199.333C202.121 195.562 202.182 196.263 201.703 198.141L221.833 216.833L231.057 231.833L228.333 227.333L256.333 270.333L260.833 267.833H270.333L281.333 270.333L288.833 273.333L296.333 276.333H303.333L310.333 263.333L323.333 246.833L329.833 241.583L338.833 231.833L354.333 224.783C359.333 221.333 366.333 227.333 366.333 227.333L362.833 246.833V257.333L359.333 270.333L357.333 282.333L354.333 298.333V309.333V324.333L357.333 333.333L359.333 345.333V356.333V363.333L357.333 377.333L350.333 389.333L345.333 399.333L338.833 406.333L332.833 414.333L318.833 424.333L306.333 429.333L312.833 439.333L318.833 452.333L323.333 464.833L332.833 483.333L338.833 498.333L345.333 511.333H335.333L95 511.5L100 502L113.333 483.333L123.333 474.583L127.048 471.333L136.333 456.333L152.833 435.833L162.333 424.333L171.555 414.333L179.833 399.333L182.333 389.333L173.333 377.333Z" fill="#90CFF1"/>
<path d="M200.833 202.833C200.567 199.642 204.51 192.823 198.833 199.333M123.333 474.583L127.048 471.333M127.048 471.333L113.333 483.333L100 502L95 511.5L335.333 511.333H345.333L338.833 498.333L332.833 483.333L323.333 464.833L318.833 452.333L312.833 439.333L306.333 429.333L318.833 424.333L332.833 414.333L338.833 406.333L345.333 399.333L350.333 389.333L357.333 377.333L359.333 363.333V356.333V345.333L357.333 333.333L354.333 324.333V309.333V298.333L357.333 282.333L359.333 270.333L362.833 257.333V246.833M127.048 471.333L123.333 477.333L136.333 456.333L152.833 435.833L162.333 424.333L171.555 414.333L179.833 399.333L182.333 389.333L173.333 377.333L169.149 360.333C164.833 352.833 160.518 335.465 162.333 339.833M366.333 236.333L362.833 246.833M362.833 246.833L366.333 227.333C366.333 227.333 359.333 221.333 354.333 224.783L338.833 231.833L329.833 241.583L323.333 246.833L310.333 263.333L303.333 276.333M303.333 276.333L310.333 270.333M303.333 276.333H296.333L288.833 273.333L281.333 270.333L270.333 267.833H260.833L256.333 270.333L228.333 227.333L251.333 265.333L245.333 257.333L238.333 246.833L236.057 241.583L231.057 231.833L221.833 216.833M214.833 206.333L221.833 216.833M221.833 216.833L200.833 197.333L207.333 206.333L198.833 199.333M198.833 199.333C197.396 200.982 191.301 211.238 188.333 213.333C179.833 219.333 177.095 224.783 179.833 224.783M179.833 224.783C175.641 236.333 175.88 231.833 177.333 227.333M179.833 224.783L177.333 227.333M177.333 227.333C172.501 241.262 166.092 268.333 171.555 276.333C174.97 281.333 173.371 271.333 169.149 282.333M171.945 246.833L169.149 282.333M169.149 282.333C167.372 301.833 168.15 290.215 167.333 295.333M167.333 295.333C162.333 306.333 156.44 324.833 161.44 329.333C161.44 332.667 161.44 299.546 161.44 311.546C161.44 316.832 157.518 316.465 162.333 339.833M167.333 295.333L159.58 324.333L162.333 339.833" stroke="black" stroke-width="3"/>
</g>
<g filter="url(#filter2_d_0_1)">
<path d="M161.44 317.375V329.333C160.969 328.909 160.595 328.361 160.307 327.706C160.397 328.503 160.505 329.353 160.633 330.26L162.333 339.833C161.557 336.067 161.008 332.917 160.633 330.26L160.067 327.074C159.806 326.277 159.648 325.355 159.58 324.333C159.351 320.889 160.143 316.312 161.44 311.546C162.982 305.88 165.236 299.947 167.333 295.333C168.15 290.215 167.372 301.833 169.149 282.333L169.954 272.107C167.802 261.233 173.157 239.373 177.333 227.333L179.833 224.783C177.095 224.783 179.833 219.333 188.333 213.333C191.301 211.238 197.396 200.982 198.833 199.333C202.121 195.562 202.182 196.263 201.703 198.141L221.833 216.833L231.057 231.833L251.333 265.333L245.333 257.333L238.333 246.833L236.057 241.583L231.057 231.833L221.833 216.833L201.703 198.141C201.679 198.235 201.653 198.332 201.627 198.432L207.333 206.333L200.972 201.094L198.833 199.333C197.396 200.982 191.301 211.238 188.333 213.333C179.833 219.333 177.095 224.783 179.833 224.783C175.641 236.333 175.88 231.833 177.333 227.333C173.157 239.373 167.802 261.233 169.954 272.107C170.292 273.813 170.815 275.248 171.555 276.333C171.781 276.663 171.984 276.928 172.167 277.138C173.718 276.079 173.922 279.156 172.167 277.138C171.437 277.635 170.41 279.047 169.149 282.333C167.372 301.833 168.15 290.215 167.333 295.333L161.44 317.375Z" fill="#90CFF1"/>
<path d="M200.833 202.833C200.567 199.642 204.51 192.823 198.833 199.333M123.333 474.583L127.048 471.333M127.048 471.333L113.333 483.333L102.333 498.333L97.3333 507.833V511.333M127.048 471.333L123.333 477.333L136.333 456.333L152.833 435.833L162.333 424.333L171.555 414.333L179.833 399.333L182.333 389.333L173.333 377.333L169.149 360.333C164.833 352.833 160.518 335.465 162.333 339.833M345.333 511.333L338.833 498.333L332.833 483.333L323.333 464.833L318.833 452.333L312.833 439.333L306.333 429.333L318.833 424.333L332.833 414.333L338.833 406.333L345.333 399.333L350.333 389.333L357.333 377.333L359.333 363.333V356.333V345.333L357.333 333.333L354.333 324.333V309.333V298.333L357.333 282.333L359.333 270.333L362.833 257.333V246.833M366.333 236.333L362.833 246.833M362.833 246.833L366.333 227.333C366.333 227.333 359.333 221.333 354.333 224.783L338.833 231.833L329.833 241.583L323.333 246.833L310.333 263.333L303.333 276.333M303.333 276.333L307.91 267.833M303.333 276.333H296.333L288.833 273.333L281.333 270.333L270.333 267.833H260.833L256.333 270.333L228.333 227.333L251.333 265.333L245.333 257.333L238.333 246.833L236.057 241.583L231.057 231.833L221.833 216.833M214.833 206.333L221.833 216.833M221.833 216.833L200.833 197.333L207.333 206.333L198.833 199.333M198.833 199.333C197.396 200.982 191.301 211.238 188.333 213.333C179.833 219.333 177.095 224.783 179.833 224.783M179.833 224.783C175.641 236.333 175.88 231.833 177.333 227.333M179.833 224.783L177.333 227.333M177.333 227.333C172.501 241.262 166.092 268.333 171.555 276.333C174.97 281.333 173.371 271.333 169.149 282.333M171.945 246.833L169.149 282.333M169.149 282.333C167.372 301.833 168.15 290.215 167.333 295.333M167.333 295.333C162.333 306.333 156.44 324.833 161.44 329.333C161.44 332.667 161.44 299.546 161.44 311.546C161.44 316.832 157.518 316.465 162.333 339.833M167.333 295.333L159.58 324.333L162.333 339.833" stroke="#090808" stroke-width="3"/>
</g>
<path d="M291.268 381C292.038 379.667 293.962 379.667 294.732 381L299.928 390C300.698 391.333 299.736 393 298.196 393H287.804C286.264 393 285.302 391.333 286.072 390L291.268 381Z" fill="white"/>
<path d="M269.5 393.705C277.9 389.305 302.592 393.705 302.592 393.705" stroke="black" stroke-width="3"/>
<path d="M254 206.5V204.453C254 204.155 254.069 203.861 254.202 203.595C254.817 202.366 256.488 202.164 257.378 203.212L276.461 225.687C277.484 226.892 278.37 228.207 279.104 229.607L283.5 238L284.887 240.775C285.294 241.589 285.799 242.349 286.391 243.04L287.11 243.879C288.018 244.938 288.605 246.233 288.802 247.614C288.933 248.53 289.236 249.412 289.695 250.216L290.333 251.333C290.777 252.109 291.142 252.927 291.425 253.775C291.807 254.92 292.339 256.009 293.008 257.013L295 260C295.992 261.323 296.749 262.832 297.225 264.415C297.733 266.109 298.557 267.716 299.642 269.111L300.777 270.571C301.258 271.189 301.676 271.853 302.027 272.553C302.342 273.183 302.6 273.84 302.799 274.516L305 282L305.596 283.491C305.934 283.402 306.306 283.736 306.151 284.124L306 284.5L305.914 284.716C306.113 285 305.956 285.42 305.604 285.49L305 287H304.101C303.065 287 302.059 287.353 301.25 288L301.068 288.146C300.377 288.699 299.518 289 298.633 289C298.214 289 297.797 289.068 297.4 289.2L295 290C293.013 290.662 290.932 291 288.838 291H288.5H286.618C285.883 291 285.158 291.171 284.5 291.5C283.842 291.829 283.117 292 282.382 292H280H274.5H269H268.55C266.854 292 265.163 291.833 263.5 291.5C261.837 291.167 260.146 291 258.45 291H258C256.341 291 254.691 290.769 253.096 290.313L252 290L246.25 288.275C243.727 287.518 242 285.196 242 282.563C242 282.188 242.035 281.815 242.105 281.447L244 271.5L246 262L248 250L250 237L251.193 232.226C251.729 230.083 252 227.883 252 225.675C252 223.896 252.176 222.121 252.525 220.377L253.417 215.913C253.805 213.976 254 212.005 254 210.029V206.5Z" fill="#F5F366"/>
<path d="M305 287H304.101C303.065 287 302.059 287.353 301.25 288L301.068 288.146C300.377 288.699 299.518 289 298.633 289V289C298.214 289 297.797 289.068 297.4 289.2L295 290V290C293.013 290.662 290.932 291 288.838 291H288.5H286.618C285.883 291 285.158 291.171 284.5 291.5V291.5C283.842 291.829 283.117 292 282.382 292H280H274.5H269H268.55C266.854 292 265.163 291.833 263.5 291.5V291.5C261.837 291.167 260.146 291 258.45 291H258V291C256.341 291 254.691 290.769 253.096 290.313L252 290L246.25 288.275C243.727 287.518 242 285.196 242 282.563V282.563C242 282.188 242.035 281.815 242.105 281.447L244 271.5L246 262L248 250L250 237L251.193 232.226C251.729 230.083 252 227.883 252 225.675V225.675C252 223.896 252.176 222.121 252.525 220.377L253.417 215.913C253.805 213.976 254 212.005 254 210.029V206.5V204.453C254 204.155 254.069 203.861 254.202 203.595V203.595C254.817 202.366 256.488 202.164 257.378 203.212L276.461 225.687C277.484 226.892 278.37 228.207 279.104 229.607L283.5 238L284.887 240.775C285.294 241.589 285.799 242.349 286.391 243.04L287.11 243.879C288.018 244.938 288.605 246.233 288.802 247.614V247.614C288.933 248.53 289.236 249.412 289.695 250.216L290.333 251.333C290.777 252.109 291.142 252.927 291.425 253.775V253.775C291.807 254.92 292.339 256.009 293.008 257.013L295 260V260C295.992 261.323 296.749 262.832 297.225 264.415V264.415C297.733 266.109 298.557 267.716 299.642 269.111L300.777 270.571C301.258 271.189 301.676 271.853 302.027 272.553V272.553C302.342 273.183 302.6 273.84 302.799 274.516L305 282L306 284.5M305 287V286C305 285.724 305.224 285.5 305.5 285.5V285.5C305.981 285.5 306.184 284.888 305.8 284.6L305.433 284.325C305.204 284.153 305.181 283.819 305.383 283.617V283.617C305.744 283.256 306.34 283.65 306.151 284.124L306 284.5M305 287L306 284.5" stroke="black" stroke-width="3"/>
<path d="M283 362C280.833 361.5 275.7 359.4 272.5 355C270.881 352.775 270.982 351.695 271.775 351C272.421 350.434 273.525 350.123 274.535 349.655C275.349 349.277 276.101 348.798 276.5 348C277.088 346.824 278.261 346.56 279.5 346.715C280.352 346.822 281.236 347.126 281.983 347.468C283.141 347.758 284.438 348 285.5 348H290L293.5 349.5L297 351C298.167 352.333 299.8 355.9 297 359.5H293.5L290 364.5H285.5L283 362Z" fill="#C29187"/>
<path d="M283 348C282.15 347.49 280.789 346.876 279.5 346.715M279.5 346.715C278.261 346.56 277.088 346.824 276.5 348C275.607 349.786 272.942 349.977 271.775 351M279.5 346.715C280.667 347.143 283.5 348 285.5 348H290L293.5 349.5L297 351C298.167 352.333 299.8 355.9 297 359.5H293.5L290 364.5H285.5L283 362C280.833 361.5 275.7 359.4 272.5 355C270.881 352.775 270.982 351.695 271.775 351M274.852 349.5L271.775 351" stroke="black" stroke-width="3"/>
<path d="M252.395 337.135C246.821 339.882 253.425 342.075 239 338.5C230.155 336.308 225.5 331.937 225.5 324.5C225.5 317.063 228.898 316.306 248.398 318.869C257.511 318.869 257.969 334.389 252.395 337.135Z" fill="#7D9AAC"/>
<path d="M247.898 328.43C247.898 332.02 244.988 334.93 241.398 334.93C237.809 334.93 234.898 332.02 234.898 328.43C234.898 324.84 237.809 321.93 241.398 321.93C244.988 321.93 247.898 324.84 247.898 328.43Z" fill="#090808"/>
<path d="M227.898 319.806C229.963 319.403 231.538 319.594 233.01 318.417C233.196 318.268 236.736 318.806 237.398 318.806C241.195 318.806 244.239 319.076 247.648 319.834C248.596 320.044 250.983 322.001 251.593 322.611C252.406 323.424 253.052 324.775 253.51 325.806C254.85 328.821 255.377 335.049 252.898 337.528C250.841 339.585 245.432 339.306 242.676 339.306C239.351 339.306 236.956 337.616 234.148 336.056C229.043 333.219 223.292 326.965 227.398 320.806" stroke="black" stroke-width="3" stroke-linecap="round"/>
<circle cx="232.398" cy="324.806" r="2.5" fill="#C4C4C4"/>
<path d="M301.637 339.135C307.211 341.882 300.075 344.075 314.5 340.5C323.345 338.308 327 332.437 327 325C327 317.563 325.134 318.306 305.634 320.869C296.521 320.869 296.063 336.389 301.637 339.135Z" fill="#7D9AAC"/>
<path d="M306.134 330.43C306.134 334.02 309.044 336.93 312.634 336.93C316.224 336.93 319.134 334.02 319.134 330.43C319.134 326.84 316.224 323.93 312.634 323.93C309.044 323.93 306.134 326.84 306.134 330.43Z" fill="#090808"/>
<path d="M326.134 321.806C324.07 321.403 322.494 321.594 321.023 320.417C320.836 320.268 317.296 320.806 316.634 320.806C312.837 320.806 309.793 321.076 306.384 321.834C305.437 322.044 303.049 324.001 302.439 324.611C301.626 325.424 300.981 326.775 300.523 327.806C299.183 330.821 298.655 337.049 301.134 339.528C303.191 341.585 308.6 341.306 311.356 341.306C314.681 341.306 317.076 339.616 319.884 338.056C324.99 335.219 330.74 328.965 326.634 322.806" stroke="black" stroke-width="3" stroke-linecap="round"/>
<circle r="2.5" transform="matrix(-1 0 0 1 321.634 326.806)" fill="#C4C4C4"/>
<defs>
<filter id="filter0_b_0_1" x="-10000" y="-10000" width="20512" height="20512" filterUnits="userSpaceOnUse" color-interpolation-filters="sRGB">
<feFlood flood-opacity="0" result="BackgroundImageFix"/>
<feGaussianBlur in="BackgroundImage" stdDeviation="5000"/>
<feComposite in2="SourceAlpha" operator="in" result="effect1_backgroundBlur_0_1"/>
<feBlend mode="normal" in="SourceGraphic" in2="effect1_backgroundBlur_0_1" result="shape"/>
</filter>
<filter id="filter1_d_0_1" x="88.5145" y="195.115" width="283.447" height="325.887" filterUnits="userSpaceOnUse" color-interpolation-filters="sRGB">
<feFlood flood-opacity="0" result="BackgroundImageFix"/>
<feColorMatrix in="SourceAlpha" type="matrix" values="0 0 0 0 0 0 0 0 0 0 0 0 0 0 0 0 0 0 127 0" result="hardAlpha"/>
<feOffset dy="4"/>
<feGaussianBlur stdDeviation="2"/>
<feComposite in2="hardAlpha" operator="out"/>
<feColorMatrix type="matrix" values="0 0 0 0 0 0 0 0 0 0 0 0 0 0 0 0 0 0 0.25 0"/>
<feBlend mode="normal" in2="BackgroundImageFix" result="effect1_dropShadow_0_1"/>
<feBlend mode="normal" in="SourceGraphic" in2="effect1_dropShadow_0_1" result="shape"/>
</filter>
<filter id="filter2_d_0_1" x="91.8333" y="195.115" width="280.128" height="324.889" filterUnits="userSpaceOnUse" color-interpolation-filters="sRGB">
<feFlood flood-opacity="0" result="BackgroundImageFix"/>
<feColorMatrix in="SourceAlpha" type="matrix" values="0 0 0 0 0 0 0 0 0 0 0 0 0 0 0 0 0 0 127 0" result="hardAlpha"/>
<feOffset dy="4"/>
<feGaussianBlur stdDeviation="2"/>
<feComposite in2="hardAlpha" operator="out"/>
<feColorMatrix type="matrix" values="0 0 0 0 0 0 0 0 0 0 0 0 0 0 0 0 0 0 0.25 0"/>
<feBlend mode="normal" in2="BackgroundImageFix" result="effect1_dropShadow_0_1"/>
<feBlend mode="normal" in="SourceGraphic" in2="effect1_dropShadow_0_1" result="shape"/>
</filter>
</defs>
</svg>
